<svg width="59.969" xmlns="http://www.w3.org/2000/svg" height="61" id="screenshot-68039c58-14e1-80a0-8007-73602c165e60" viewBox="1975 587.5 59.969 61" xmlns:xlink="http://www.w3.org/1999/xlink" fill="none" version="1.1"><g id="shape-68039c58-14e1-80a0-8007-73602c165e60"><g class="fills" id="fills-68039c58-14e1-80a0-8007-73602c165e60"><path d="M2003.2064208984375,587.5C2003.0843505859375,587.499755859375,2002.961181640625,587.505615234375,2002.837890625,587.5174560546875C2001.9879150390625,587.59912109375,2001.02490234375,588.071044921875,2000.7998046875,588.51611328125C2000.7091064453125,588.6954956054688,2000.58984375,588.7970581054688,2000.5347900390625,588.7420654296875C2000.479736328125,588.68701171875,2000.4349365234375,588.7142944335938,2000.4349365234375,588.8026733398438C2000.4349365234375,588.8910522460938,2000.1793212890625,588.9959716796875,1999.8670654296875,589.035400390625C1999.5548095703125,589.0748291015625,1998.924560546875,589.1830444335938,1998.466552734375,589.276123046875C1998.008544921875,589.3692016601562,1997.4635009765625,589.4752197265625,1997.2552490234375,589.5118408203125C1997.047119140625,589.5484008789062,1996.8597412109375,589.5922241210938,1996.8388671875,589.6088256835938C1996.818115234375,589.6254272460938,1996.7498779296875,589.6509399414062,1996.6875,589.6655883789062C1995.1402587890625,590.0287475585938,1991.725830078125,591.5090942382812,1991.0352783203125,592.1162719726562C1990.90380859375,592.2318725585938,1990.7454833984375,592.3264770507812,1990.683349609375,592.3264770507812C1990.621337890625,592.3264770507812,1989.9305419921875,592.7694091796875,1989.1483154296875,593.3109741210938C1987.522216796875,594.4368286132812,1986.12841796875,595.8014526367188,1985.6378173828125,596.7481689453125C1985.137451171875,597.71337890625,1984.138916015625,600.1774291992188,1983.9320068359375,600.9569091796875C1983.83251953125,601.3316650390625,1983.6978759765625,601.7428588867188,1983.6328125,601.8709716796875C1983.539794921875,602.0537719726562,1983.3546142578125,602.8701782226562,1983.25634765625,603.5308837890625C1983.2501220703125,603.5725708007812,1983.1800537109375,603.708740234375,1983.1004638671875,603.8336791992188C1982.9112548828125,604.1307373046875,1982.8377685546875,610.8076782226562,1983.0150146484375,611.5967407226562C1983.0902099609375,611.931396484375,1983.2174072265625,612.246337890625,1983.2977294921875,612.2966918945312C1983.3780517578125,612.3470458984375,1983.49365234375,613.12451171875,1983.5546875,614.024658203125C1983.647705078125,615.3958129882812,1983.7362060546875,615.7992553710938,1984.1011962890625,616.5128173828125C1984.3406982421875,616.981201171875,1984.5367431640625,617.5516357421875,1984.5367431640625,617.7802734375C1984.5367431640625,618.0089111328125,1984.6224365234375,618.2859497070312,1984.7271728515625,618.39599609375C1984.83203125,618.5060424804688,1985.041259765625,619.0679321289062,1985.192138671875,619.6448364257812C1985.51025390625,620.861328125,1985.8353271484375,621.5436401367188,1986.53857421875,622.471923828125C1987.1761474609375,623.3135986328125,1987.9937744140625,624.9127197265625,1988.1026611328125,625.5303344726562C1988.1484375,625.7901611328125,1988.245849609375,626.0746459960938,1988.31884765625,626.16259765625C1988.5218505859375,626.4073486328125,1988.515869140625,633.0397338867188,1988.31201171875,633.6245727539062C1988.2178955078125,633.8945922851562,1988.085693359375,634.11572265625,1988.018310546875,634.11572265625C1987.9510498046875,634.11572265625,1987.849365234375,634.4562377929688,1987.7921142578125,634.87255859375C1987.73486328125,635.288818359375,1987.626220703125,635.66748046875,1987.55078125,635.7141723632812C1987.475341796875,635.7608032226562,1987.4146728515625,636.1527709960938,1987.4158935546875,636.5850219726562C1987.4176025390625,637.1453857421875,1987.298095703125,637.6101684570312,1986.99951171875,638.203857421875C1986.769287109375,638.661865234375,1986.5418701171875,639.0706176757812,1986.4945068359375,639.1123046875C1986.3817138671875,639.2113647460938,1985.748046875,640.5392456054688,1985.748046875,640.6763916015625C1985.748046875,640.8322143554688,1984.45068359375,642.1405029296875,1984.2960205078125,642.1405029296875C1984.2235107421875,642.1405029296875,1983.8782958984375,642.4471435546875,1983.529296875,642.8218383789062C1983.0682373046875,643.31689453125,1982.77783203125,643.5032958984375,1982.4666748046875,643.5050048828125C1982.025146484375,643.5072631835938,1979.9254150390625,644.1270751953125,1979.743408203125,644.30908203125C1979.6871337890625,644.3653564453125,1979.5443115234375,644.4116821289062,1979.4261474609375,644.4116821289062C1979.307861328125,644.4116821289062,1978.909423828125,644.6282958984375,1978.540771484375,644.8931274414062C1977.937744140625,645.3260498046875,1977.7369384765625,645.3814086914062,1976.5474853515625,645.4425659179688C1975.2823486328125,645.507568359375,1975.0052490234375,645.614501953125,1975,646.039306640625C1974.9984130859375,646.1751708984375,1975.339111328125,646.2285766601562,1976.2059326171875,646.2285766601562C1977.4697265625,646.2285766601562,1978.44970703125,645.9583740234375,1979.0126953125,645.4549560546875C1979.1806640625,645.3047485351562,1979.93017578125,644.9685668945312,1980.67822265625,644.7079467773438C1981.8551025390625,644.2979736328125,1982.819091796875,644.1320190429688,1984.952880859375,643.9716186523438C1985.0570068359375,643.9638061523438,1985.14208984375,643.8250122070312,1985.14208984375,643.6634521484375C1985.14208984375,643.4334106445312,1985.0191650390625,643.359619140625,1984.5743408203125,643.3228149414062L1984.006591796875,643.276123046875L1984.763671875,642.7627563476562C1985.1800537109375,642.4804077148438,1985.72509765625,641.9766235351562,1985.974853515625,641.6434326171875C1986.4539794921875,641.0044555664062,1987.421630859375,639.2637329101562,1987.2977294921875,639.2637329101562C1987.2576904296875,639.2637329101562,1987.2940673828125,639.1785278320312,1987.378662109375,639.074462890625C1987.8155517578125,638.5369873046875,1988.17041015625,637.6748046875,1988.17041015625,637.1513671875C1988.17041015625,636.4497680664062,1988.539306640625,634.9456176757812,1988.9412841796875,634.0078735351562C1989.19775390625,633.4094848632812,1989.230224609375,632.9419555664062,1989.230224609375,629.856201171875C1989.230224609375,627.2167358398438,1989.1805419921875,626.2800903320312,1989.0235595703125,625.9697875976562C1988.90966796875,625.7449340820312,1988.767578125,625.28857421875,1988.7080078125,624.9554443359375C1988.591552734375,624.3052368164062,1987.932373046875,623.0460205078125,1987.4229736328125,622.5012817382812C1987.2510986328125,622.3173828125,1987.1104736328125,622.085205078125,1987.1104736328125,621.9855346679688C1987.1104736328125,621.8858032226562,1986.954345703125,621.593505859375,1986.7635498046875,621.3358154296875C1986.57275390625,621.078125,1986.2266845703125,620.3563842773438,1985.994384765625,619.7318115234375C1985.7620849609375,619.1072387695312,1985.475341796875,618.4031982421875,1985.3570556640625,618.1674194335938C1985.2388916015625,617.931640625,1985.14208984375,617.5697021484375,1985.14208984375,617.363037109375C1985.14208984375,617.156494140625,1984.9793701171875,616.6340942382812,1984.7803955078125,616.2020263671875C1984.58154296875,615.77001953125,1984.3800048828125,615.0418701171875,1984.3323974609375,614.5838623046875C1984.284912109375,614.1258544921875,1984.2012939453125,613.4075927734375,1984.146728515625,612.9878540039062L1984.047607421875,612.224609375L1986.2984619140625,611.478759765625C1987.5362548828125,611.0685424804688,1988.6170654296875,610.718505859375,1988.7003173828125,610.70068359375C1988.7835693359375,610.6829833984375,1989.3626708984375,610.4677734375,1989.9873046875,610.2225341796875C1990.61181640625,609.977294921875,1991.429443359375,609.7259521484375,1991.80419921875,609.6641845703125C1992.178955078125,609.6024169921875,1992.596435546875,609.493896484375,1992.7318115234375,609.4229125976562C1992.9031982421875,609.3330688476562,1993.34033203125,609.4778442382812,1994.1676025390625,609.8984375C1994.82177734375,610.23095703125,1995.7962646484375,610.6787109375,1996.3331298828125,610.8934936523438C1996.8701171875,611.1083374023438,1997.4163818359375,611.3451538085938,1997.547119140625,611.419921875C1998.0330810546875,611.69775390625,2000.231689453125,612.5695190429688,2000.9305419921875,612.7613525390625C2001.8651123046875,613.017822265625,2001.9361572265625,613.1602172851562,2001.18896484375,613.2797241210938C2000.79931640625,613.342041015625,2000.5859375,613.455810546875,2000.5859375,613.6015014648438C2000.5859375,613.7254028320312,2000.6619873046875,613.8267822265625,2000.7548828125,613.8267822265625C2000.8585205078125,613.8267822265625,2000.829345703125,613.9708251953125,2000.6790771484375,614.2000122070312C2000.2760009765625,614.8153076171875,2000.3824462890625,615.1683349609375,2001.2176513671875,615.9862060546875C2002.1602783203125,616.9091186523438,2002.3734130859375,616.94580078125,2005.571044921875,616.7340698242188C2007.908447265625,616.5792846679688,2008.156494140625,616.4801635742188,2008.156494140625,615.702880859375C2008.156494140625,615.5175170898438,2008.24169921875,615.3359985351562,2008.345703125,615.2994995117188C2008.576171875,615.2186889648438,2007.890625,614.5995483398438,2007.5509033203125,614.581787109375C2007.4259033203125,614.5752563476562,2007.01708984375,614.406005859375,2006.6424560546875,614.205322265625L2005.9610595703125,613.8404541015625L2007.04931640625,613.8336181640625C2008.76416015625,613.8228149414062,2010.9091796875,613.2177734375,2013.531494140625,612.005126953125C2013.86474609375,611.85107421875,2014.599853515625,611.5527954101562,2015.1650390625,611.3421630859375L2016.193115234375,610.9588623046875L2016.0908203125,612.0900268554688C2016.001220703125,613.0784912109375,2016.01953125,613.2211303710938,2016.236328125,613.2211303710938C2016.42578125,613.2211303710938,2016.486328125,613.0692749023438,2016.492919921875,612.5776977539062C2016.51123046875,611.2366943359375,2016.67431640625,610.759033203125,2017.166015625,610.6104736328125C2017.41552734375,610.5350952148438,2017.755859375,610.4146118164062,2017.92236328125,610.3425903320312C2018.46875,610.1063232421875,2019.880126953125,609.7535400390625,2020.424560546875,609.7171630859375C2020.796630859375,609.6922607421875,2021.139892578125,609.8046875,2021.557373046875,610.0885620117188C2022.227294921875,610.5437622070312,2022.38916015625,610.5850830078125,2022.38916015625,610.3011474609375C2022.38916015625,610.1942138671875,2022.167724609375,609.9745483398438,2021.89697265625,609.8129272460938L2021.405029296875,609.519287109375L2021.859130859375,609.4196166992188C2022.10888671875,609.3649291992188,2022.90087890625,609.3120727539062,2023.61865234375,609.30224609375L2024.923583984375,609.2844848632812L2025.11279296875,609.9596557617188C2025.216552734375,610.3309936523438,2025.25927734375,610.803466796875,2025.20751953125,611.009765625C2025.15576171875,611.2160034179688,2025.1962890625,611.7468872070312,2025.297119140625,612.1893920898438C2025.4921875,613.0438232421875,2025.483642578125,613.86962890625,2025.27685546875,614.266845703125C2025.20751953125,614.3995361328125,2025.10546875,615.1553955078125,2025.0498046875,615.946533203125C2024.9521484375,617.3328247070312,2024.96435546875,617.4151000976562,2025.384765625,618.2177124023438C2025.879638671875,619.1622314453125,2026.01220703125,619.7495727539062,2026.119384765625,621.4730224609375C2026.19287109375,622.6576538085938,2025.9296875,624.2163696289062,2025.5859375,624.6325073242188C2025.508056640625,624.7267456054688,2025.39404296875,625.0733642578125,2025.33251953125,625.4028930664062C2025.270751953125,625.7323608398438,2024.9921875,626.3196411132812,2024.713134765625,626.7078857421875C2024.434326171875,627.09619140625,2024.2060546875,627.5508422851562,2024.2060546875,627.7180786132812C2024.2060546875,627.8853149414062,2024.103759765625,628.1071166992188,2023.97900390625,628.2108154296875C2023.85400390625,628.314453125,2023.751708984375,628.4848022460938,2023.751708984375,628.5892944335938C2023.751708984375,628.69384765625,2023.654052734375,628.8602905273438,2023.534423828125,628.9595336914062C2023.414794921875,629.0587768554688,2023.2724609375,629.3428344726562,2023.218017578125,629.5906372070312C2023.16357421875,629.8384399414062,2022.947998046875,630.2255859375,2022.738525390625,630.450927734375C2022.0556640625,631.18603515625,2021.7724609375,631.9427490234375,2021.677490234375,633.2889404296875L2021.587646484375,634.5626220703125L2020.40087890625,635.7395629882812C2019.748291015625,636.386962890625,2019.212890625,637.0045776367188,2019.2119140625,637.112060546875C2019.207763671875,637.4437255859375,2018.5615234375,638.203857421875,2018.283203125,638.203857421875C2018.138427734375,638.203857421875,2017.929931640625,638.291015625,2017.81982421875,638.3978271484375C2017.406005859375,638.7996215820312,2016.6865234375,639.2183227539062,2015.9541015625,639.4834594726562C2015.537841796875,639.6342163085938,2015.132568359375,639.8168334960938,2015.053466796875,639.8892211914062C2014.974365234375,639.9614868164062,2013.747802734375,640.0189819335938,2012.327880859375,640.0172119140625C2010.10302734375,640.014404296875,2009.6572265625,639.9734497070312,2009.100830078125,639.7208862304688C2008.74560546875,639.5597534179688,2008.20068359375,639.3807373046875,2007.8895263671875,639.3228759765625C2007.074951171875,639.17138671875,2005.2257080078125,637.9580078125,2003.9661865234375,636.7485961914062C2002.00927734375,634.8696899414062,2001.5096435546875,634.4341430664062,2001.0216064453125,634.1817016601562C2000.392578125,633.8564453125,1996.3851318359375,629.9347534179688,1996.2548828125,629.5169677734375C1996.1995849609375,629.33984375,1996.1124267578125,629.160888671875,1996.0611572265625,629.1192626953125C1996.0098876953125,629.0775756835938,1995.89990234375,628.934326171875,1995.816650390625,628.801025390625C1995.7332763671875,628.667724609375,1995.483154296875,628.2857666015625,1995.2606201171875,627.9520263671875C1994.9930419921875,627.55078125,1994.8236083984375,627.0472412109375,1994.7608642578125,626.4656982421875C1994.70361328125,625.935546875,1994.536865234375,625.4048461914062,1994.3406982421875,625.1293334960938C1993.8988037109375,624.5088500976562,1993.8681640625,624.313720703125,1993.89208984375,622.2678833007812C1993.9111328125,620.6279907226562,1993.8907470703125,620.4888305664062,1993.6314697265625,620.4888305664062C1993.41455078125,620.4888305664062,1993.331298828125,620.635986328125,1993.2674560546875,621.1323852539062C1993.14794921875,622.06201171875,1993.1207275390625,624.2781982421875,1993.2275390625,624.385009765625C1993.277587890625,624.4349975585938,1993.318359375,624.6079711914062,1993.318359375,624.7694702148438C1993.318359375,624.930908203125,1993.4886474609375,625.2654418945312,1993.6968994140625,625.5128784179688C1993.9869384765625,625.8576049804688,1994.0753173828125,626.134765625,1994.0753173828125,626.6984252929688C1994.0753173828125,627.632568359375,1994.2528076171875,628.091796875,1994.9107666015625,628.8604736328125C1995.2008056640625,629.1992797851562,1995.4381103515625,629.5780029296875,1995.4381103515625,629.7020874023438C1995.4381103515625,629.9956665039062,1999.917236328125,634.4276123046875,2000.5103759765625,634.7208251953125C2001.0042724609375,634.965087890625,2001.32275390625,635.2390747070312,2003.408447265625,637.2131958007812C2005.25,638.956298828125,2006.355224609375,639.6456298828125,2007.929443359375,640.0328979492188C2008.345703125,640.1353149414062,2008.82080078125,640.3107299804688,2008.985107421875,640.4226684570312C2009.19677734375,640.5669555664062,2009.84716796875,640.6264038085938,2011.218505859375,640.6264038085938L2013.153076171875,640.6264038085938L2013.156494140625,641.2698974609375C2013.16064453125,642.0528564453125,2013.600341796875,643.072265625,2014.078857421875,643.4074096679688C2014.27294921875,643.5433349609375,2014.6845703125,643.6546630859375,2014.993896484375,643.6546630859375C2015.302978515625,643.6546630859375,2015.747802734375,643.7286987304688,2015.982177734375,643.8193359375C2016.221435546875,643.911865234375,2017.880859375,644.0133666992188,2019.765380859375,644.0505981445312C2022.6181640625,644.1070556640625,2023.2548828125,644.162353515625,2024.0048828125,644.4208374023438C2024.848388671875,644.7115478515625,2026.797607421875,645.1681518554688,2027.196533203125,645.16845703125C2027.300537109375,645.1685180664062,2027.3857421875,644.9984130859375,2027.3857421875,644.7902221679688C2027.3857421875,644.5134887695312,2027.3046875,644.4116821289062,2027.0849609375,644.4116821289062C2026.695068359375,644.4116821289062,2025.593994140625,644.1531982421875,2024.357666015625,643.7714233398438C2023.53857421875,643.5186157226562,2022.814453125,643.4559936523438,2020.04248046875,643.3985595703125C2017.67138671875,643.349365234375,2016.546630859375,643.2672119140625,2016.140380859375,643.1134643554688C2015.826416015625,642.9946899414062,2015.302734375,642.8975830078125,2014.9765625,642.8975830078125C2014.436767578125,642.8975830078125,2014.366943359375,642.8504028320312,2014.1923828125,642.36767578125C2014.0869140625,642.076171875,2013.9462890625,641.8377075195312,2013.8798828125,641.8377075195312C2013.813232421875,641.8377075195312,2013.7587890625,641.565185546875,2013.7587890625,641.2320556640625C2013.7587890625,640.6099243164062,2013.878662109375,640.5177612304688,2014.355712890625,640.7731323242188C2014.5576171875,640.8811645507812,2014.83056640625,640.8228149414062,2015.3916015625,640.5521850585938C2015.810546875,640.35009765625,2016.329833984375,640.140625,2016.5458984375,640.08642578125C2016.76171875,640.0322265625,2016.9384765625,639.9373779296875,2016.9384765625,639.8755493164062C2016.9384765625,639.8137817382812,2017.3984375,639.5322875976562,2017.96044921875,639.2501220703125C2019.156494140625,638.6497802734375,2019.14892578125,638.6561889648438,2019.805908203125,637.6739501953125C2020.084228515625,637.257568359375,2020.55810546875,636.6767578125,2020.858642578125,636.3833618164062C2021.990234375,635.2786865234375,2022.1494140625,635.00244140625,2022.2509765625,633.96435546875C2022.386474609375,632.5782470703125,2022.639892578125,631.7666015625,2023.11474609375,631.1990356445312C2023.651611328125,630.5573120117188,2023.9033203125,630.0962524414062,2023.9033203125,629.754150390625C2023.9033203125,629.6015014648438,2024.141845703125,629.19775390625,2024.433349609375,628.8572387695312C2024.724853515625,628.5167236328125,2024.963134765625,628.10595703125,2024.963134765625,627.9443359375C2024.963134765625,627.7826538085938,2025.167724609375,627.3683471679688,2025.41748046875,627.0234375C2025.667236328125,626.6785888671875,2025.871826171875,626.2239379882812,2025.871826171875,626.0132446289062C2025.871826171875,625.8026123046875,2026.05908203125,625.3470458984375,2026.2880859375,625.0009765625C2026.70166015625,624.3763427734375,2026.70458984375,624.3533935546875,2026.70458984375,621.7867431640625C2026.70458984375,619.5421752929688,2026.66455078125,619.10693359375,2026.401611328125,618.4829711914062C2026.235107421875,618.0877075195312,2026.050048828125,617.7640991210938,2025.990966796875,617.7637939453125C2025.841796875,617.76318359375,2025.53564453125,616.5767211914062,2025.640869140625,616.4066772460938C2025.687744140625,616.3306274414062,2025.75439453125,615.7443237304688,2025.78857421875,615.1033935546875C2025.822998046875,614.4625854492188,2025.923828125,613.865478515625,2026.0126953125,613.7765502929688C2026.21728515625,613.572021484375,2026.2255859375,612.210693359375,2026.023193359375,612.0855712890625C2025.623779296875,611.8388061523438,2025.938232421875,611.7311401367188,2026.439453125,611.9430541992188C2027.83935546875,612.534912109375,2030.352294921875,613.4076538085938,2031.06787109375,613.5505981445312C2031.499267578125,613.6367797851562,2032.29541015625,613.739013671875,2032.836669921875,613.7777099609375C2033.687744140625,613.8385620117188,2033.892333984375,613.7999267578125,2034.3505859375,613.4917602539062C2035.21923828125,612.90771484375,2035.166259765625,611.6551513671875,2034.228515625,610.6134643554688C2033.502685546875,609.8070068359375,2032.673583984375,609.284912109375,2029.7294921875,607.7801513671875C2028.398681640625,607.0999755859375,2026.943115234375,606.3458862304688,2026.4951171875,606.1045532226562C2025.619873046875,605.63330078125,2024.932861328125,605.0650024414062,2025.036376953125,604.897705078125C2025.2255859375,604.5916137695312,2024.0419921875,600.6428833007812,2023.0576171875,598.2960205078125C2022.0693359375,595.9392700195312,2021.6416015625,595.3171997070312,2019.47412109375,593.0856323242188C2018.510986328125,592.0941772460938,2017.630615234375,591.4551391601562,2016.71142578125,591.0806274414062C2014.84228515625,590.319091796875,2013.689208984375,589.9049682617188,2013.187744140625,589.8146362304688C2012.877197265625,589.7587280273438,2012.55517578125,589.66015625,2012.471923828125,589.5958251953125C2012.388671875,589.531494140625,2012.1162109375,589.4580688476562,2011.8662109375,589.4323120117188C2011.616455078125,589.406494140625,2011.33447265625,589.3298950195312,2011.239990234375,589.261962890625C2011.145263671875,589.1940307617188,2009.897216796875,589.060546875,2008.466064453125,588.96533203125L2005.864013671875,588.7920532226562L2005.3734130859375,588.3017578125C2004.866943359375,587.7952880859375,2004.060546875,587.501953125,2003.206298828125,587.5000610351562ZM2002.5950927734375,613.8267822265625C2003.489990234375,613.8267822265625,2003.5042724609375,613.8328857421875,2003.244873046875,614.1195068359375C2003.0423583984375,614.3432006835938,2002.9918212890625,614.6119995117188,2003.0318603515625,615.2554321289062C2003.08251953125,616.06884765625,2003.0712890625,616.0980224609375,2002.7060546875,616.0917358398438C2002.3551025390625,616.0857543945312,2001.19189453125,615.223388671875,2001.19189453125,614.9691772460938C2001.19189453125,614.9072875976562,2001.3017578125,614.6248779296875,2001.4361572265625,614.3416137695312C2001.67431640625,613.8397216796875,2001.70361328125,613.8267822265625,2002.5950927734375,613.8267822265625ZM2021.441650390625,614.0769653320312C2020.770263671875,614.0809936523438,2020.00634765625,614.1793823242188,2019.636474609375,614.37060546875C2019.409912109375,614.48779296875,2018.87548828125,614.5838012695312,2018.448486328125,614.5838012695312C2017.785400390625,614.5838012695312,2017.60498046875,614.6507568359375,2017.2109375,615.0448608398438C2016.82275390625,615.4330444335938,2016.76318359375,615.5885620117188,2016.834228515625,616.0263671875C2016.880859375,616.3129272460938,2016.84912109375,616.5894165039062,2016.763916015625,616.64208984375C2016.53125,616.785888671875,2016.83056640625,617.0192260742188,2017.335693359375,617.0880126953125C2017.5751953125,617.1206665039062,2018.1728515625,617.1945190429688,2018.663818359375,617.2521362304688C2019.15478515625,617.3097534179688,2019.802001953125,617.4796752929688,2020.102294921875,617.6297607421875C2020.649169921875,617.9033203125,2021.5498046875,617.9950561523438,2021.998291015625,617.8228759765625C2022.19140625,617.7488403320312,2022.238037109375,617.4752197265625,2022.238037109375,616.4146728515625C2022.238037109375,615.67919921875,2022.166015625,615.0267944335938,2022.075439453125,614.93603515625C2021.95947265625,614.8203125,2022.02490234375,614.7454223632812,2022.302490234375,614.67578125C2022.5166015625,614.6220092773438,2022.692138671875,614.4771118164062,2022.692138671875,614.353759765625C2022.692138671875,614.16455078125,2022.113037109375,614.0732421875,2021.441650390625,614.0769653320312ZM2006.842041015625,615.0560913085938C2006.940673828125,615.054931640625,2007.0859375,615.1083374023438,2007.29833984375,615.2051391601562C2007.741943359375,615.4072875976562,2007.682373046875,615.8755493164062,2007.1962890625,616.0059814453125C2006.671142578125,616.1468505859375,2006.6427001953125,616.1244506835938,2006.6427001953125,615.5679931640625C2006.6427001953125,615.2109375,2006.677490234375,615.0577392578125,2006.842041015625,615.0560913085938ZM2018.637451171875,615.189453125C2019.129150390625,615.189453125,2019.210205078125,615.2373657226562,2019.2119140625,615.5301513671875C2019.212890625,615.717529296875,2019.2548828125,616.0241088867188,2019.304931640625,616.2114868164062C2019.3916015625,616.5347900390625,2019.354736328125,616.5513916015625,2018.583740234375,616.5400390625C2017.549072265625,616.5247802734375,2017.392822265625,616.456298828125,2017.392822265625,616.01806640625C2017.392822265625,615.5458984375,2017.92822265625,615.189453125,2018.637451171875,615.189453125ZM2021.47412109375,616.5985717773438C2021.535888671875,616.595703125,2021.5830078125,616.603759765625,2021.60546875,616.6260986328125C2021.640625,616.6614379882812,2021.62939453125,616.79541015625,2021.580078125,616.9238891601562C2021.47216796875,617.2051391601562,2020.513916015625,617.2570190429688,2020.607421875,616.9765625C2020.65673828125,616.8283081054688,2021.2060546875,616.6109619140625,2021.47412109375,616.5986328125ZM2015.24169921875,618.8233032226562C2014.971923828125,618.8233032226562,2014.949462890625,618.9021606445312,2015.01611328125,619.6182250976562C2015.13525390625,620.9000854492188,2015.457763671875,621.759033203125,2016.03076171875,622.320556640625C2017.001953125,623.2722778320312,2017.84716796875,624.2542114257812,2017.84716796875,624.431396484375C2017.84716796875,624.6668701171875,2017.404296875,625.6173706054688,2017.06298828125,626.1143798828125C2016.911376953125,626.3353881835938,2016.787109375,626.7293090820312,2016.787109375,626.9896850585938C2016.787109375,627.5323486328125,2016.44482421875,627.7476196289062,2016.01220703125,627.4773559570312C2015.6376953125,627.2435913085938,2015.197265625,627.2557373046875,2014.989990234375,627.5054321289062C2014.78076171875,627.7576293945312,2014.9169921875,627.907958984375,2015.355224609375,627.907958984375C2015.539306640625,627.907958984375,2015.775146484375,628.0101318359375,2015.878662109375,628.1350708007812C2016.40625,628.7708129882812,2017.392822265625,628.1327514648438,2017.392822265625,627.1561889648438C2017.392822265625,626.9034423828125,2017.453369140625,626.6966552734375,2017.527587890625,626.6966552734375C2017.60205078125,626.6966552734375,2017.707763671875,626.5169677734375,2017.7626953125,626.2974243164062C2017.81787109375,626.077880859375,2018.02978515625,625.679443359375,2018.233642578125,625.412353515625C2018.894775390625,624.5454711914062,2018.763916015625,624.1105346679688,2017.4306640625,622.7449340820312C2016.218994140625,621.5038452148438,2015.839599609375,620.81201171875,2015.639404296875,619.477783203125C2015.561767578125,618.95947265625,2015.47900390625,618.8233032226562,2015.24169921875,618.8233032226562ZM2009.833251953125,624.4009399414062C2009.34619140625,624.3800659179688,2008.086181640625,624.74609375,2007.879638671875,625.0054321289062C2007.4432373046875,625.5536499023438,2008.0498046875,627.346435546875,2008.800048828125,627.72607421875C2008.987548828125,627.8209228515625,2009.37939453125,627.9189453125,2009.6708984375,627.9437255859375C2009.96240234375,627.968505859375,2010.286865234375,627.92724609375,2010.391845703125,627.852294921875C2010.7041015625,627.6297607421875,2010.309326171875,627.3023071289062,2009.728759765625,627.3023071289062C2009.304443359375,627.3023071289062,2009.141845703125,627.1964721679688,2008.763427734375,626.6738891601562C2008.512939453125,626.3283081054688,2008.30810546875,625.889892578125,2008.30810546875,625.6997680664062C2008.30810546875,625.3401489257812,2008.423095703125,625.2789306640625,2009.41357421875,625.111572265625C2009.998046875,625.0128784179688,2010.3173828125,624.6376342773438,2009.989501953125,624.4349975585938C2009.95654296875,624.4147338867188,2009.90283203125,624.4039306640625,2009.833251953125,624.4009399414062ZM2012.8173828125,626.7957153320312C2012.68994140625,626.798583984375,2012.53173828125,626.8146362304688,2012.33642578125,626.8406372070312C2011.825439453125,626.9088745117188,2011.70556640625,626.988037109375,2011.66357421875,627.2857055664062C2011.623046875,627.5714111328125,2011.665771484375,627.6272583007812,2011.865234375,627.5506591796875C2012.004150390625,627.4973754882812,2012.385009765625,627.4536743164062,2012.711181640625,627.4536743164062C2013.195068359375,627.4536743164062,2013.3046875,627.39990234375,2013.3046875,627.1632690429688C2013.3046875,626.8897705078125,2013.199462890625,626.7863159179688,2012.8173828125,626.795654296875ZM1994.580810546875,630.0276489257812C1994.40380859375,630.0276489257812,1994.3701171875,630.1148071289062,1994.4488525390625,630.3683471679688C1994.900146484375,631.8207397460938,1994.8507080078125,634.2847290039062,1994.3538818359375,635.099365234375C1994.201416015625,635.3494873046875,1994.0762939453125,635.6393432617188,1994.075927734375,635.743408203125C1994.0745849609375,636.2117309570312,1994.5478515625,635.8630981445312,1994.878173828125,635.1525268554688C1995.07275390625,634.734375,1995.13525390625,634.1812133789062,1995.1346435546875,632.8814086914062C1995.1336669921875,630.977294921875,1994.9493408203125,630.0276489257812,1994.580810546875,630.0276489257812ZM2007.9296875,631.529052734375C2007.2470703125,631.4893798828125,2006.4913330078125,631.8221435546875,2006.4913330078125,632.1622314453125C2006.4913330078125,632.4962158203125,2006.7840576171875,632.5281982421875,2007.4935302734375,632.2716064453125C2007.873046875,632.1343994140625,2008.120849609375,632.134521484375,2008.56396484375,632.2719116210938C2008.88134765625,632.3703002929688,2009.311279296875,632.4691772460938,2009.51953125,632.491943359375C2009.727783203125,632.5147094726562,2010.000244140625,632.599853515625,2010.125244140625,632.680908203125C2010.3623046875,632.8347778320312,2011.466064453125,632.8826293945312,2015.083740234375,632.8961791992188C2017.1376953125,632.9039306640625,2017.241455078125,632.9190673828125,2017.241455078125,633.207275390625C2017.241455078125,633.4091796875,2017.34228515625,633.5101318359375,2017.544189453125,633.5101318359375C2017.7744140625,633.5101318359375,2017.84716796875,633.408935546875,2017.84716796875,633.0892944335938C2017.84716796875,632.2813720703125,2017.615234375,632.2256469726562,2014.123046875,632.1935424804688C2011.519775390625,632.1696166992188,2010.693603515625,632.1080322265625,2009.656494140625,631.8599853515625C2008.95654296875,631.6925659179688,2008.179443359375,631.5436401367188,2007.9296875,631.529052734375ZM1994.77587890625,639.5665283203125C1993.6395263671875,639.5665283203125,1992.564453125,640.3434448242188,1991.8131103515625,641.7078857421875C1991.179931640625,642.8576049804688,1990.7158203125,643.3486328125,1990.261474609375,643.350341796875C1989.8094482421875,643.35205078125,1989.6138916015625,643.5545654296875,1989.7420654296875,643.8887939453125C1989.7940673828125,644.0242309570312,1990.0343017578125,644.1088256835938,1990.3673095703125,644.1088256835938C1991.03662109375,644.1088256835938,1991.8861083984375,643.3067626953125,1992.4876708984375,642.1068115234375C1992.7078857421875,641.6672973632812,1992.9940185546875,641.18994140625,1993.1234130859375,641.0463256835938C1993.339111328125,640.8067626953125,1994.2259521484375,640.3362426757812,1994.87060546875,640.1192626953125C1995.271240234375,639.9843139648438,1995.19970703125,639.5665283203125,1994.77587890625,639.5665283203125ZM2007.812255859375,641.3562622070312C2007.74462890625,641.3579711914062,2007.70263671875,641.4136962890625,2007.70263671875,641.5348510742188C2007.70263671875,641.6181030273438,2007.770751953125,641.686279296875,2007.85400390625,641.686279296875C2007.937255859375,641.686279296875,2008.00537109375,641.8645629882812,2008.00537109375,642.08251953125C2008.00537109375,642.341064453125,2008.20947265625,642.6832885742188,2008.593017578125,643.0667114257812C2009.162353515625,643.635986328125,2009.825927734375,643.851806640625,2009.81884765625,643.46533203125C2009.817138671875,643.3612670898438,2009.597900390625,643.168701171875,2009.33203125,643.0377197265625C2009.024658203125,642.88623046875,2008.720458984375,642.5419311523438,2008.49560546875,642.0914306640625C2008.275390625,641.6497192382812,2007.9725341796875,641.3521118164062,2007.812255859375,641.3562622070312ZM2000.7266845703125,646.2285766601562C1999.2789306640625,646.2285766601562,1999.0693359375,646.597412109375,2000.500244140625,646.627197265625C2001.19482421875,646.6417236328125,2001.5965576171875,646.732421875,2001.9007568359375,646.943359375C2002.1353759765625,647.1060180664062,2002.4443359375,647.28125,2002.58740234375,647.3328247070312C2002.7305908203125,647.3843994140625,2002.948486328125,647.6679077148438,2003.07177734375,647.9630126953125L2003.2960205078125,648.499755859375L2004.651611328125,648.499755859375L2006.0072021484375,648.499755859375L2006.158935546875,648.0650024414062C2006.4410400390625,647.2555541992188,2006.894287109375,646.9856567382812,2007.9708251953125,646.9856567382812C2008.677734375,646.9856567382812,2008.921875,646.9345703125,2008.876220703125,646.79638671875C2008.836669921875,646.676513671875,2008.44287109375,646.590576171875,2007.8018798828125,646.5621337890625C2007,646.526611328125,2006.771240234375,646.566162109375,2006.7000732421875,646.7514038085938C2006.650634765625,646.8801879882812,2006.5166015625,646.9856567382812,2006.40234375,646.9856567382812C2006.2879638671875,646.9856567382812,2006.0555419921875,647.2581787109375,2005.8856201171875,647.5912475585938C2005.5826416015625,648.1851196289062,2005.5606689453125,648.1968994140625,2004.7578125,648.1968994140625C2003.925537109375,648.1968994140625,2003.63427734375,648.0430908203125,2003.3060302734375,647.4298095703125C2003.220947265625,647.270751953125,2002.9830322265625,647.0982055664062,2002.77734375,647.0465698242188C2002.571533203125,646.9949340820312,2002.4031982421875,646.8970947265625,2002.4031982421875,646.828857421875C2002.4031982421875,646.5780639648438,2001.42724609375,646.2285766601562,2000.7266845703125,646.2285766601562Z" style="fill: rgb(255, 255, 255); fill-opacity: 1;"/></g></g></svg>